<svg viewBox="0 0 64 64" xmlns="http://www.w3.org/2000/svg">
  <rect style="stroke: rgb(0, 0, 0); fill: rgb(1, 6, 8); stroke-width: 0px;" x="0" y="0" width="64" height="64" rx="0" ry="0" transform="matrix(0.9999999999999999, 0, 0, 0.9999999999999999, 0, 0)"/>
  <path d="M 22.424 37.366 Q 16.16 37.366 16.16 32.817 Q 16.16 32.115 16.316 31.309 L 16.654 29.386 L 21.333 29.386 L 21.177 30.244 Q 21.073 30.894 21.073 31.569 Q 21.073 32.245 21.411 32.687 Q 21.931 33.337 23.126 33.337 Q 24.322 33.337 25.063 32.687 Q 25.804 32.037 26.115 30.296 L 28.247 18.261 L 32.9 18.261 L 30.716 30.66 Q 30.118 34.117 28.117 35.741 Q 26.115 37.366 22.424 37.366 Z M 56.169 18.287 Q 59.574 18.287 61.03 20.002 Q 62.096 21.302 62.096 23.252 Q 62.096 23.953 61.966 24.733 L 60.952 30.53 Q 60.432 33.467 58.405 35.234 Q 56.377 37.002 53.154 37.002 L 45.59 37.002 L 48.891 18.287 Z M 54.532 22.342 L 52.842 22.342 L 50.997 32.947 L 53.466 32.947 Q 54.688 32.947 55.376 32.284 Q 56.065 31.621 56.325 30.114 L 57.079 25.851 Q 57.183 25.279 57.183 24.811 Q 57.183 22.342 54.532 22.342 Z" transform="matrix(1.07555, 0, 0, 1.100033, -9.22514, 1.134191)" style="fill: rgb(236, 247, 255); line-height: 44.5599px; stroke-width: 0px; vector-effect: non-scaling-stroke;"/>
  <path d="M 98.003 54.572 L 92.181 54.572 L 105.998 25.685 L 111.792 25.685 Z" transform="matrix(0.681682, 0, 0, 1.076966, -36.68306, -12.034914)" style="fill: rgb(236, 247, 255); stroke-width: 0px;"/>
</svg>
